<?xml version="1.0" encoding="UTF-8" standalone="no"?>
<!-- Generator: Adobe Illustrator 19.0.0, SVG Export Plug-In . SVG Version: 6.00 Build 0)  -->

<svg
   xmlns:dc="http://purl.org/dc/elements/1.1/"
   xmlns:cc="http://creativecommons.org/ns#"
   xmlns:rdf="http://www.w3.org/1999/02/22-rdf-syntax-ns#"
   xmlns:svg="http://www.w3.org/2000/svg"
   xmlns="http://www.w3.org/2000/svg"
   xmlns:xlink="http://www.w3.org/1999/xlink"
   xmlns:sodipodi="http://sodipodi.sourceforge.net/DTD/sodipodi-0.dtd"
   xmlns:inkscape="http://www.inkscape.org/namespaces/inkscape"
   version="1.1"
   id="Layer_1"
   x="0px"
   y="0px"
   viewBox="-14 10.6 30.399999 30.4"
   xml:space="preserve"
   sodipodi:docname="icon.svg"
   inkscape:export-filename="icon.png"
   inkscape:export-xdpi="2000"
   inkscape:export-ydpi="2000"
   inkscape:version="0.92.2 2405546, 2018-03-11"
   width="30.4"
   height="30.4"><metadata
   id="metadata43"><rdf:RDF><cc:Work
       rdf:about=""><dc:format>image/svg+xml</dc:format><dc:type
         rdf:resource="http://purl.org/dc/dcmitype/StillImage" /><dc:title></dc:title></cc:Work></rdf:RDF></metadata><defs
   id="defs41"><linearGradient
   inkscape:collect="always"
   id="linearGradient918"><stop
     style="stop-color:#ffffff;stop-opacity:1;"
     offset="0"
     id="stop914" /><stop
     style="stop-color:#ffffff;stop-opacity:0;"
     offset="1"
     id="stop916" /></linearGradient>
		
	<linearGradient
   inkscape:collect="always"
   xlink:href="#linearGradient918"
   id="linearGradient920"
   x1="-14"
   y1="25.8"
   x2="5.1"
   y2="25.8"
   gradientUnits="userSpaceOnUse" /></defs><sodipodi:namedview
   pagecolor="#ffffff"
   bordercolor="#666666"
   borderopacity="1"
   objecttolerance="10"
   gridtolerance="10"
   guidetolerance="10"
   inkscape:pageopacity="0"
   inkscape:pageshadow="2"
   inkscape:window-width="1920"
   inkscape:window-height="1015"
   id="namedview39"
   showgrid="false"
   inkscape:zoom="10.978763"
   inkscape:cx="26.787226"
   inkscape:cy="3.4143909"
   inkscape:window-x="0"
   inkscape:window-y="33"
   inkscape:window-maximized="1"
   inkscape:current-layer="g36" />
<style
   type="text/css"
   id="style2">
	.st0{fill:#2AB380;}
	.st1{clip-path:url(#SVGID_4_);}
</style>
<g
   id="g36">
	
		<rect
   style="opacity:1;vector-effect:none;fill:#2ab380;fill-opacity:1;fill-rule:nonzero;stroke:none;stroke-width:1.2028805;stroke-miterlimit:4;stroke-dasharray:none;stroke-opacity:1;paint-order:markers stroke fill"
   id="rect903"
   width="30.4"
   height="30.4"
   x="-14"
   y="10.6" /><image
   sodipodi:absref="/home/marmis/Documents/Daily Coding Problem/29BEB0A4562E727D.jpeg"
   xlink:href="29BEB0A4562E727D.jpeg"
   id="image4"
   transform="matrix(0.24,0,0,0.238,135,7)"
   height="242"
   width="1450"
   style="display:none;overflow:visible;enable-background:new">
	</image>
	
	<g
   id="g912"
   transform="matrix(0.69714697,0,0,0.69714697,4.3023038,7.8136084)"
   style="fill:#ffffff;fill-opacity:1"><g
     style="fill:#ffffff;fill-opacity:1"
     id="g9">
			<g
   style="fill:#ffffff;fill-opacity:1"
   id="g7">
				<path
   id="SVGID_1_"
   class="st0"
   d="m -7.5,10.6 v 3.1 h 1.1 c 0.5,0 1,0.1 1.4,0.2 0.4,0.1 0.8,0.3 1.1,0.6 0.3,0.3 0.5,0.7 0.7,1.1 0.2,0.5 0.2,1.1 0.2,1.8 v 2.7 c 0,1.6 0.3,2.8 0.8,3.6 0.6,0.8 1.4,1.2 2.6,1.4 -0.6,0.1 -1.1,0.2 -1.5,0.4 -0.4,0.2 -0.8,0.5 -1.1,0.9 -0.3,0.4 -0.5,0.9 -0.6,1.5 C -2.9,28.5 -3,29.2 -3,30 v 4.3 c 0,0.7 -0.1,1.3 -0.2,1.7 -0.2,0.5 -0.4,0.8 -0.7,1.1 -0.3,0.3 -0.7,0.5 -1.1,0.6 -0.4,0.1 -0.9,0.2 -1.4,0.2 H -7.5 V 41 h 1.4 c 1.2,0 2.2,-0.1 3.1,-0.4 0.9,-0.3 1.6,-0.7 2.1,-1.3 0.5,-0.6 0.9,-1.3 1.2,-2.1 0.3,-0.8 0.4,-1.8 0.4,-3 V 29.9 C 0.7,29.3 0.8,28.8 0.9,28.4 1,28 1.2,27.7 1.5,27.4 1.8,27.1 2.1,26.9 2.5,26.8 2.9,26.7 3.4,26.6 4,26.6 H 5.1 V 23.5 H 4 C 2.8,23.5 2,23.2 1.5,22.7 1,22.1 0.8,21.3 0.8,20.2 V 17.4 C 0.8,15 0.2,13.3 -0.9,12.2 -2,11.1 -3.7,10.6 -6,10.6 Z"
   inkscape:connector-curvature="0"
   style="fill:#ffffff;fill-opacity:1" />
			</g>
		</g><g
     style="fill:#ffffff;fill-opacity:1"
     id="g18">
		<g
   style="fill:#ffffff;fill-opacity:1"
   id="g16">
			<g
   style="fill:#ffffff;fill-opacity:1"
   id="g14">
				<path
   style="fill:#ffffff;fill-opacity:1"
   inkscape:connector-curvature="0"
   d="m -11.2,17.7 c 1.5,0 2.8,1.3 2.8,2.8 0,1.5 -1.3,2.8 -2.8,2.8 -1.5,0 -2.8,-1.3 -2.8,-2.8 0,-1.6 1.3,-2.8 2.8,-2.8 z"
   class="st0"
   id="SVGID_3_" />
			</g>
		</g>
	</g></g>
	
</g>
</svg>